<?xml version="1.0" encoding="UTF-8" standalone="no"?>
<svg xmlns:xlink="http://www.w3.org/1999/xlink" height="29.95px" width="269.3px" xmlns="http://www.w3.org/2000/svg">
  <g transform="matrix(1.0, 0.0, 0.0, 1.0, -1.1, -1.4)">
    <g transform="matrix(1.0, 0.0, 0.0, 1.0, 0.0, 0.0)">
      <use fill="#ffffff" height="29.95" transform="matrix(0.0137, 0.0, 0.0, 0.0137, 0.0, 13.0)" width="269.3" xlink:href="#font_Myriad_Pro_E0"/>
      <use fill="#ffffff" height="29.95" transform="matrix(0.0137, 0.0, 0.0, 0.0137, 6.9, 13.0)" width="269.3" xlink:href="#font_Myriad_Pro_s0"/>
      <use fill="#ffffff" height="29.95" transform="matrix(0.0137, 0.0, 0.0, 0.0137, 12.45, 13.0)" width="269.3" xlink:href="#font_Myriad_Pro_t0"/>
      <use fill="#ffffff" height="29.95" transform="matrix(0.0137, 0.0, 0.0, 0.0137, 17.1, 13.0)" width="269.3" xlink:href="#font_Myriad_Pro_a0"/>
      <use fill="#ffffff" height="29.95" transform="matrix(0.0137, 0.0, 0.0, 0.0137, 26.8, 13.0)" width="269.3" xlink:href="#font_Myriad_Pro_e0"/>
      <use fill="#ffffff" height="29.95" transform="matrix(0.0137, 0.0, 0.0, 0.0137, 33.8, 13.0)" width="269.3" xlink:href="#font_Myriad_Pro_s0"/>
      <use fill="#ffffff" height="29.95" transform="matrix(0.0137, 0.0, 0.0, 0.0137, 42.3, 13.0)" width="269.3" xlink:href="#font_Myriad_Pro_l0"/>
      <use fill="#ffffff" height="29.95" transform="matrix(0.0137, 0.0, 0.0, 0.0137, 45.6, 13.0)" width="269.3" xlink:href="#font_Myriad_Pro_a0"/>
      <use fill="#ffffff" height="29.95" transform="matrix(0.0137, 0.0, 0.0, 0.0137, 55.3, 13.0)" width="269.3" xlink:href="#font_Myriad_Pro_r0"/>
      <use fill="#ffffff" height="29.95" transform="matrix(0.0137, 0.0, 0.0, 0.0137, 59.75, 13.0)" width="269.3" xlink:href="#font_Myriad_Pro_e0"/>
      <use fill="#ffffff" height="29.95" transform="matrix(0.0137, 0.0, 0.0, 0.0137, 66.75, 13.0)" width="269.3" xlink:href="#font_Myriad_Pro_p0"/>
      <use fill="#ffffff" height="29.95" transform="matrix(0.0137, 0.0, 0.0, 0.0137, 74.7, 13.0)" width="269.3" xlink:href="#font_Myriad_Pro_r0"/>
      <use fill="#ffffff" height="29.95" transform="matrix(0.0137, 0.0, 0.0, 0.0137, 79.15, 13.0)" width="269.3" xlink:href="#font_Myriad_Pro_e0"/>
      <use fill="#ffffff" height="29.95" transform="matrix(0.0137, 0.0, 0.0, 0.0137, 86.15, 13.0)" width="269.3" xlink:href="#font_Myriad_Pro_s0"/>
      <use fill="#ffffff" height="29.95" transform="matrix(0.0137, 0.0, 0.0, 0.0137, 91.7, 13.0)" width="269.3" xlink:href="#font_Myriad_Pro_e0"/>
      <use fill="#ffffff" height="29.95" transform="matrix(0.0137, 0.0, 0.0, 0.0137, 98.7, 13.0)" width="269.3" xlink:href="#font_Myriad_Pro_n0"/>
      <use fill="#ffffff" height="29.95" transform="matrix(0.0137, 0.0, 0.0, 0.0137, 106.4, 13.0)" width="269.3" xlink:href="#font_Myriad_Pro_t0"/>
      <use fill="#ffffff" height="29.95" transform="matrix(0.0137, 0.0, 0.0, 0.0137, 111.05, 13.0)" width="269.3" xlink:href="#font_Myriad_Pro_a0"/>
      <use fill="#ffffff" height="29.95" transform="matrix(0.0137, 0.0, 0.0, 0.0137, 117.8, 13.0)" width="269.3" xlink:href="#font_Myriad_Pro_c0"/>
      <use fill="#ffffff" height="29.95" transform="matrix(0.0137, 0.0, 0.0, 0.0137, 124.05, 13.0)" width="269.3" xlink:href="#font_Myriad_Pro_i0"/>
      <use fill="#ffffff" height="29.95" transform="matrix(0.0137, 0.0, 0.0, 0.0137, 127.35, 13.0)" width="269.3" xlink:href="#font_Myriad_Pro__1"/>
      <use fill="#ffffff" height="29.95" transform="matrix(0.0137, 0.0, 0.0, 0.0137, 135.05, 13.0)" width="269.3" xlink:href="#font_Myriad_Pro_n0"/>
      <use fill="#ffffff" height="29.95" transform="matrix(0.0137, 0.0, 0.0, 0.0137, 145.75, 13.0)" width="269.3" xlink:href="#font_Myriad_Pro_d0"/>
      <use fill="#ffffff" height="29.95" transform="matrix(0.0137, 0.0, 0.0, 0.0137, 153.65, 13.0)" width="269.3" xlink:href="#font_Myriad_Pro_e0"/>
      <use fill="#ffffff" height="29.95" transform="matrix(0.0137, 0.0, 0.0, 0.0137, 160.65, 13.0)" width="269.3" xlink:href="#font_Myriad_Pro_l0"/>
      <use fill="#ffffff" height="29.95" transform="matrix(0.0137, 0.0, 0.0, 0.0137, 166.9, 13.0)" width="269.3" xlink:href="#font_Myriad_Pro_n0"/>
      <use fill="#ffffff" height="29.95" transform="matrix(0.0137, 0.0, 0.0, 0.0137, 174.65, 13.0)" width="269.3" xlink:href="#font_Myriad_Pro__2"/>
      <use fill="#ffffff" height="29.95" transform="matrix(0.0137, 0.0, 0.0, 0.0137, 182.35, 13.0)" width="269.3" xlink:href="#font_Myriad_Pro_m0"/>
      <use fill="#ffffff" height="29.95" transform="matrix(0.0137, 0.0, 0.0, 0.0137, 194.05, 13.0)" width="269.3" xlink:href="#font_Myriad_Pro_e0"/>
      <use fill="#ffffff" height="29.95" transform="matrix(0.0137, 0.0, 0.0, 0.0137, 201.05, 13.0)" width="269.3" xlink:href="#font_Myriad_Pro_r0"/>
      <use fill="#ffffff" height="29.95" transform="matrix(0.0137, 0.0, 0.0, 0.0137, 205.5, 13.0)" width="269.3" xlink:href="#font_Myriad_Pro_o0"/>
      <use fill="#ffffff" height="29.95" transform="matrix(0.0137, 0.0, 0.0, 0.0137, 216.15, 13.0)" width="269.3" xlink:href="#font_Myriad_Pro_d0"/>
      <use fill="#ffffff" height="29.95" transform="matrix(0.0137, 0.0, 0.0, 0.0137, 224.05, 13.0)" width="269.3" xlink:href="#font_Myriad_Pro_e0"/>
      <use fill="#ffffff" height="29.95" transform="matrix(0.0137, 0.0, 0.0, 0.0137, 231.05, 13.0)" width="269.3" xlink:href="#font_Myriad_Pro_c0"/>
      <use fill="#ffffff" height="29.95" transform="matrix(0.0137, 0.0, 0.0, 0.0137, 237.3, 13.0)" width="269.3" xlink:href="#font_Myriad_Pro_i0"/>
      <use fill="#ffffff" height="29.95" transform="matrix(0.0137, 0.0, 0.0, 0.0137, 240.6, 13.0)" width="269.3" xlink:href="#font_Myriad_Pro_m0"/>
      <use fill="#ffffff" height="29.95" transform="matrix(0.0137, 0.0, 0.0, 0.0137, 252.3, 13.0)" width="269.3" xlink:href="#font_Myriad_Pro_a0"/>
      <use fill="#ffffff" height="29.95" transform="matrix(0.0137, 0.0, 0.0, 0.0137, 259.05, 13.0)" width="269.3" xlink:href="#font_Myriad_Pro_l0"/>
    </g>
    <g transform="matrix(1.0, 0.0, 0.0, 1.0, 0.0, 0.0)">
      <use fill="#ffffff" height="29.95" transform="matrix(0.0137, 0.0, 0.0, 0.0137, 44.0, 30.0)" width="269.3" xlink:href="#font_Myriad_Pro_c0"/>
      <use fill="#ffffff" height="29.95" transform="matrix(0.0137, 0.0, 0.0, 0.0137, 50.15, 30.0)" width="269.3" xlink:href="#font_Myriad_Pro_o0"/>
      <use fill="#ffffff" height="29.95" transform="matrix(0.0137, 0.0, 0.0, 0.0137, 57.85, 30.0)" width="269.3" xlink:href="#font_Myriad_Pro_m0"/>
      <use fill="#ffffff" height="29.95" transform="matrix(0.0137, 0.0, 0.0, 0.0137, 69.55, 30.0)" width="269.3" xlink:href="#font_Myriad_Pro_o0"/>
      <use fill="#ffffff" height="29.95" transform="matrix(0.0137, 0.0, 0.0, 0.0137, 80.2, 30.0)" width="269.3" xlink:href="#font_Myriad_Pro_r0"/>
      <use fill="#ffffff" height="29.95" transform="matrix(0.0137, 0.0, 0.0, 0.0137, 84.65, 30.0)" width="269.3" xlink:href="#font_Myriad_Pro_e0"/>
      <use fill="#ffffff" height="29.95" transform="matrix(0.0137, 0.0, 0.0, 0.0137, 91.65, 30.0)" width="269.3" xlink:href="#font_Myriad_Pro_s0"/>
      <use fill="#ffffff" height="29.95" transform="matrix(0.0137, 0.0, 0.0, 0.0137, 97.2, 30.0)" width="269.3" xlink:href="#font_Myriad_Pro_u0"/>
      <use fill="#ffffff" height="29.95" transform="matrix(0.0137, 0.0, 0.0, 0.0137, 104.9, 30.0)" width="269.3" xlink:href="#font_Myriad_Pro_l0"/>
      <use fill="#ffffff" height="29.95" transform="matrix(0.0137, 0.0, 0.0, 0.0137, 108.2, 30.0)" width="269.3" xlink:href="#font_Myriad_Pro_t0"/>
      <use fill="#ffffff" height="29.95" transform="matrix(0.0137, 0.0, 0.0, 0.0137, 112.85, 30.0)" width="269.3" xlink:href="#font_Myriad_Pro_a0"/>
      <use fill="#ffffff" height="29.95" transform="matrix(0.0137, 0.0, 0.0, 0.0137, 119.6, 30.0)" width="269.3" xlink:href="#font_Myriad_Pro_d0"/>
      <use fill="#ffffff" height="29.95" transform="matrix(0.0137, 0.0, 0.0, 0.0137, 127.5, 30.0)" width="269.3" xlink:href="#font_Myriad_Pro_o0"/>
      <use fill="#ffffff" height="29.95" transform="matrix(0.0137, 0.0, 0.0, 0.0137, 138.15, 30.0)" width="269.3" xlink:href="#font_Myriad_Pro_d0"/>
      <use fill="#ffffff" height="29.95" transform="matrix(0.0137, 0.0, 0.0, 0.0137, 146.05, 30.0)" width="269.3" xlink:href="#font_Myriad_Pro_e0"/>
      <use fill="#ffffff" height="29.95" transform="matrix(0.0137, 0.0, 0.0, 0.0137, 156.0, 30.0)" width="269.3" xlink:href="#font_Myriad_Pro_l0"/>
      <use fill="#ffffff" height="29.95" transform="matrix(0.0137, 0.0, 0.0, 0.0137, 159.3, 30.0)" width="269.3" xlink:href="#font_Myriad_Pro_a0"/>
      <use fill="#ffffff" height="29.95" transform="matrix(0.0137, 0.0, 0.0, 0.0137, 169.0, 30.0)" width="269.3" xlink:href="#font_Myriad_Pro_f0"/>
      <use fill="#ffffff" height="29.95" transform="matrix(0.0137, 0.0, 0.0, 0.0137, 173.1, 30.0)" width="269.3" xlink:href="#font_Myriad_Pro_r0"/>
      <use fill="#ffffff" height="29.95" transform="matrix(0.0137, 0.0, 0.0, 0.0137, 177.65, 30.0)" width="269.3" xlink:href="#font_Myriad_Pro_a0"/>
      <use fill="#ffffff" height="29.95" transform="matrix(0.0137, 0.0, 0.0, 0.0137, 184.4, 30.0)" width="269.3" xlink:href="#font_Myriad_Pro_c0"/>
      <use fill="#ffffff" height="29.95" transform="matrix(0.0137, 0.0, 0.0, 0.0137, 190.55, 30.0)" width="269.3" xlink:href="#font_Myriad_Pro_c0"/>
      <use fill="#ffffff" height="29.95" transform="matrix(0.0137, 0.0, 0.0, 0.0137, 196.8, 30.0)" width="269.3" xlink:href="#font_Myriad_Pro_i0"/>
      <use fill="#ffffff" height="29.95" transform="matrix(0.0137, 0.0, 0.0, 0.0137, 200.1, 30.0)" width="269.3" xlink:href="#font_Myriad_Pro__1"/>
      <use fill="#ffffff" height="29.95" transform="matrix(0.0137, 0.0, 0.0, 0.0137, 207.8, 30.0)" width="269.3" xlink:href="#font_Myriad_Pro_n0"/>
      <use fill="#ffffff" height="29.95" transform="matrix(0.0137, 0.0, 0.0, 0.0137, 215.55, 30.0)" width="269.3" xlink:href="#font_Myriad_Pro_:0"/>
    </g>
  </g>
  <defs>
    <g id="font_Myriad_Pro_E0">
      <path d="M434.0 -397.0 L434.0 -323.5 167.0 -323.5 167.0 -75.0 466.0 -75.0 466.0 0.0 77.0 0.0 77.0 -690.0 450.5 -690.0 450.5 -615.0 167.0 -615.0 167.0 -397.0 434.0 -397.0" fill-rule="evenodd" stroke="none"/>
    </g>
    <g id="font_Myriad_Pro_s0">
      <path d="M41.0 -24.0 L62.5 -91.0 Q84.0 -78.5 116.0 -67.5 148.0 -57.0 182.5 -56.5 230.5 -57.0 254.0 -77.5 277.5 -98.0 277.5 -130.0 278.0 -161.5 256.5 -182.0 235.0 -202.5 186.5 -220.0 119.0 -245.0 87.0 -280.0 54.5 -315.5 54.5 -360.5 55.0 -400.5 75.5 -433.5 96.0 -466.0 134.0 -485.5 172.5 -505.0 225.5 -505.5 263.5 -505.0 294.5 -496.5 326.0 -488.0 346.0 -475.0 L324.5 -409.5 Q310.0 -419.5 284.0 -429.0 258.0 -438.5 223.5 -439.0 183.5 -438.5 162.5 -419.0 141.5 -400.0 141.5 -371.5 141.0 -342.0 164.0 -323.5 186.5 -305.0 234.5 -286.5 298.5 -263.5 331.5 -228.0 364.5 -193.0 364.5 -138.5 364.0 -71.0 316.0 -30.5 267.5 10.0 180.5 11.0 139.5 10.5 103.5 1.5 67.5 -8.0 41.0 -24.0" fill-rule="evenodd" stroke="none"/>
    </g>
    <g id="font_Myriad_Pro_t0">
      <path d="M95.5 -587.5 L183.5 -614.5 183.5 -495.5 312.5 -495.5 312.5 -427.0 183.5 -427.0 183.5 -160.0 Q183.0 -114.0 198.5 -89.0 214.0 -64.0 251.0 -64.0 269.0 -64.0 281.5 -65.5 293.5 -67.0 303.5 -70.0 L307.5 -1.5 Q294.0 3.5 274.0 7.0 253.5 10.5 227.5 11.0 196.0 11.0 171.0 1.0 146.5 -9.0 130.5 -27.0 112.0 -48.0 103.5 -80.5 95.5 -113.0 95.5 -156.0 L95.5 -427.0 18.5 -427.0 18.5 -495.5 95.5 -495.5 95.5 -587.5" fill-rule="evenodd" stroke="none"/>
    </g>
    <g id="font_Myriad_Pro_a0">
      <path d="M336.0 -167.0 L336.0 -253.0 Q285.5 -254.5 238.0 -246.5 190.0 -238.0 158.5 -213.5 127.0 -189.0 126.0 -141.5 127.0 -97.0 151.0 -76.0 175.0 -55.5 210.0 -55.5 259.5 -56.5 290.0 -81.0 321.0 -105.5 332.0 -138.5 334.0 -146.0 335.0 -153.5 336.0 -161.0 336.0 -167.0 M423.0 -304.0 L423.0 -119.0 Q423.0 -86.5 424.5 -56.0 426.5 -25.5 430.0 0.0 L349.5 0.0 342.0 -62.5 339.0 -62.5 Q318.0 -32.5 279.5 -11.5 240.5 10.0 187.5 11.0 137.5 10.5 103.5 -10.0 70.0 -30.5 53.0 -62.5 36.0 -94.5 36.0 -131.0 36.5 -221.5 113.0 -268.5 189.5 -316.0 334.0 -315.5 L334.0 -325.5 Q334.5 -346.5 327.5 -373.0 320.0 -399.5 295.5 -419.0 271.5 -438.5 221.5 -439.0 185.5 -439.0 151.5 -429.5 117.5 -420.0 91.0 -402.5 L71.0 -462.5 Q102.0 -482.0 144.5 -493.5 187.0 -505.0 234.5 -505.5 309.5 -504.5 351.0 -475.0 392.0 -445.5 408.0 -400.0 423.5 -354.0 423.0 -304.0" fill-rule="evenodd" stroke="none"/>
    </g>
    <g id="font_Myriad_Pro_e0">
      <path d="M126.0 -296.0 L389.0 -296.0 Q390.0 -325.0 379.5 -358.5 369.0 -392.0 342.0 -416.0 314.5 -440.0 264.0 -441.0 218.5 -440.0 189.0 -417.5 159.5 -394.5 144.5 -361.5 129.5 -328.0 126.0 -296.0 M473.0 -231.5 L125.0 -231.5 Q126.5 -171.0 149.5 -133.0 173.0 -94.5 211.0 -77.0 249.0 -59.5 295.0 -59.5 342.5 -59.5 375.5 -67.0 408.0 -74.0 432.0 -85.0 L448.5 -20.5 Q424.5 -9.5 383.0 0.5 341.5 10.5 282.5 11.0 206.0 10.5 151.5 -21.0 97.5 -52.0 68.5 -108.5 39.5 -164.5 39.0 -239.5 39.5 -315.0 67.0 -375.0 95.0 -435.0 147.0 -469.5 199.0 -504.5 271.5 -505.5 332.0 -504.5 372.0 -482.0 412.0 -459.5 434.5 -423.5 457.5 -388.0 467.0 -348.0 476.5 -308.5 476.0 -273.5 476.0 -259.5 475.0 -249.5 474.5 -239.0 473.0 -231.5" fill-rule="evenodd" stroke="none"/>
    </g>
    <g id="font_Myriad_Pro_l0">
      <path d="M75.0 0.0 L75.0 -727.0 165.0 -727.0 165.0 0.0 75.0 0.0" fill-rule="evenodd" stroke="none"/>
    </g>
    <g id="font_Myriad_Pro_r0">
      <path d="M75.0 0.0 L75.0 -341.0 Q75.0 -384.5 74.0 -423.0 73.0 -461.0 71.0 -495.5 L149.5 -495.5 153.5 -397.0 157.0 -397.0 Q174.5 -447.5 211.5 -476.0 249.0 -505.0 295.0 -505.5 302.0 -505.5 307.5 -505.0 313.5 -504.0 319.5 -503.5 L319.5 -418.5 Q313.0 -420.0 305.5 -420.5 298.0 -420.5 289.0 -420.5 241.0 -419.5 209.5 -388.5 177.5 -357.5 168.0 -306.0 166.5 -296.5 165.5 -285.5 165.0 -275.0 165.0 -264.0 L165.0 0.0 75.0 0.0" fill-rule="evenodd" stroke="none"/>
    </g>
    <g id="font_Myriad_Pro_p0">
      <path d="M164.0 -287.5 L164.0 -201.5 Q164.0 -191.5 165.0 -182.5 166.0 -173.5 168.0 -165.0 181.0 -117.5 217.5 -89.0 254.0 -60.0 303.0 -59.5 351.0 -60.0 384.5 -84.0 418.0 -108.0 435.5 -150.5 453.5 -193.5 453.5 -251.0 453.5 -300.5 436.5 -342.0 419.5 -383.5 386.5 -408.5 354.0 -433.5 306.0 -434.0 259.0 -433.5 221.5 -404.0 183.5 -374.5 170.0 -323.5 167.5 -315.0 166.0 -305.5 164.0 -296.5 164.0 -287.5 M75.0 203.0 L75.0 -334.0 Q75.0 -381.0 74.0 -421.0 72.5 -460.5 71.0 -495.5 L150.5 -495.5 156.0 -410.5 158.0 -410.5 Q185.0 -456.0 229.0 -480.5 273.0 -505.0 334.0 -505.5 394.5 -505.0 442.0 -473.5 489.5 -442.5 516.5 -386.5 544.0 -330.0 544.5 -255.0 543.5 -166.0 512.0 -107.0 480.0 -48.0 429.0 -18.5 377.5 11.0 318.5 11.0 269.0 10.5 229.0 -9.5 189.0 -29.5 166.0 -66.5 L164.0 -66.5 164.0 203.0 75.0 203.0" fill-rule="evenodd" stroke="none"/>
    </g>
    <g id="font_Myriad_Pro_n0">
      <path d="M75.0 0.0 L75.0 -361.5 Q75.0 -400.0 74.0 -432.5 73.0 -465.0 71.0 -495.5 L150.5 -495.5 156.0 -413.5 158.0 -413.5 Q170.0 -437.0 193.0 -458.0 216.0 -478.5 248.0 -492.0 280.5 -505.0 321.5 -505.5 348.0 -506.0 378.0 -496.5 408.0 -487.0 434.5 -464.0 461.5 -440.5 479.0 -399.5 496.0 -358.0 496.5 -295.0 L496.5 0.0 406.5 0.0 406.5 -285.5 Q407.0 -326.0 395.5 -359.0 384.5 -392.0 359.5 -412.0 334.0 -431.5 292.0 -432.0 247.5 -431.0 216.0 -405.0 184.0 -378.5 171.0 -340.0 168.0 -331.5 166.5 -320.5 165.0 -309.5 165.0 -298.0 L165.0 0.0 75.0 0.0" fill-rule="evenodd" stroke="none"/>
    </g>
    <g id="font_Myriad_Pro_c0">
      <path d="M412.5 -85.0 L428.0 -17.5 Q410.0 -8.5 373.0 1.0 336.0 10.0 285.5 11.0 210.5 10.5 155.0 -21.0 100.0 -52.0 69.5 -109.0 39.5 -165.5 39.0 -241.5 39.5 -318.5 72.0 -378.0 104.5 -437.0 164.0 -471.0 223.5 -505.0 305.0 -505.5 345.5 -505.0 378.5 -497.0 411.0 -489.5 430.0 -479.0 L409.5 -410.5 Q393.5 -419.5 367.5 -426.5 342.0 -433.5 305.0 -434.0 248.0 -433.5 209.0 -408.0 170.0 -383.0 150.0 -341.0 130.0 -298.5 130.0 -246.5 130.5 -189.0 152.5 -147.5 175.0 -106.5 213.5 -84.0 252.5 -61.5 302.0 -61.5 340.0 -62.0 367.0 -69.0 393.5 -76.0 412.5 -85.0" fill-rule="evenodd" stroke="none"/>
    </g>
    <g id="font_Myriad_Pro_i0">
      <path d="M120.0 -690.0 L120.0 -690.0 Q144.5 -689.5 159.5 -673.5 174.5 -658.0 175.0 -633.5 174.5 -610.0 160.0 -594.5 145.0 -579.0 117.5 -578.5 93.0 -579.0 78.5 -594.5 64.0 -610.0 63.5 -633.5 64.0 -657.5 79.0 -673.5 94.0 -689.5 120.0 -690.0 M165.0 0.0 L75.0 0.0 75.0 -495.5 165.0 -495.5 165.0 0.0" fill-rule="evenodd" stroke="none"/>
    </g>
    <g id="font_Myriad_Pro__1">
      <path d="M316.5 -709.5 L415.5 -709.5 290.5 -563.0 227.0 -563.0 316.5 -709.5 M282.5 -438.0 L282.5 -438.0 Q230.0 -437.0 196.5 -409.0 163.0 -381.0 147.0 -337.5 131.0 -294.0 131.0 -246.5 131.5 -192.0 150.0 -149.0 169.0 -106.5 202.5 -81.5 236.0 -57.0 280.5 -56.5 324.0 -57.0 358.0 -81.5 391.5 -106.0 411.0 -149.5 430.5 -192.5 431.0 -249.0 431.0 -292.0 416.0 -335.0 401.0 -378.5 368.5 -407.5 335.5 -437.0 282.5 -438.0 M284.5 -505.5 L284.5 -505.5 Q356.0 -505.0 409.5 -473.0 463.0 -441.5 493.0 -384.5 522.5 -327.5 523.0 -252.0 522.5 -183.5 501.0 -133.5 480.0 -84.0 444.0 -52.0 408.5 -20.0 365.0 -4.5 321.5 11.0 276.5 11.0 209.0 10.5 155.5 -20.5 102.0 -51.0 71.0 -108.0 39.5 -165.0 39.0 -243.5 40.0 -326.5 72.5 -384.5 105.0 -443.0 160.5 -474.0 215.5 -505.0 284.5 -505.5" fill-rule="evenodd" stroke="none"/>
    </g>
    <g id="font_Myriad_Pro_d0">
      <path d="M412.5 -208.0 L412.5 -294.0 Q412.5 -302.5 411.5 -312.5 410.5 -323.0 408.5 -331.5 398.0 -375.0 364.0 -404.5 329.5 -434.0 278.5 -435.0 231.5 -434.5 198.5 -410.0 165.5 -385.0 148.0 -342.0 130.0 -299.5 130.0 -244.5 130.0 -194.0 146.5 -152.5 163.0 -111.5 195.5 -86.5 228.0 -62.0 276.5 -61.5 322.5 -62.0 359.0 -90.5 395.0 -118.5 408.5 -169.0 410.5 -178.0 411.5 -187.5 412.5 -197.0 412.5 -208.0 M412.5 -727.0 L501.5 -727.0 501.5 -128.0 Q501.5 -94.5 502.5 -60.0 504.0 -26.0 505.5 0.0 L426.0 0.0 421.5 -86.0 418.5 -86.0 Q398.5 -44.0 355.5 -17.0 313.0 10.0 252.0 11.0 191.5 10.5 143.5 -21.0 95.5 -52.0 67.5 -108.5 39.5 -165.0 39.0 -240.5 39.5 -323.5 69.5 -382.5 99.5 -441.5 150.0 -473.5 200.5 -505.0 261.0 -505.5 318.5 -504.5 356.0 -483.0 393.5 -461.0 410.5 -431.0 L412.5 -431.0 412.5 -727.0" fill-rule="evenodd" stroke="none"/>
    </g>
    <g id="font_Myriad_Pro__2">
      <path d="M328.5 -709.5 L427.0 -709.5 302.0 -563.0 238.5 -563.0 328.5 -709.5 M489.5 -495.5 L489.5 -136.0 Q489.5 -97.0 490.5 -63.0 491.5 -29.0 493.5 0.0 L414.0 0.0 408.5 -81.5 406.5 -81.5 Q395.5 -60.5 373.5 -39.5 352.0 -18.5 319.5 -4.0 286.5 10.5 242.5 11.0 202.5 11.5 163.5 -7.0 124.5 -25.5 98.5 -73.0 72.5 -120.5 71.5 -206.0 L71.5 -495.5 161.5 -495.5 161.5 -222.5 Q161.0 -151.0 186.5 -108.0 212.0 -65.0 272.5 -64.0 302.5 -64.5 326.5 -76.5 350.0 -88.5 366.5 -107.0 383.0 -126.0 391.5 -147.0 395.0 -156.0 397.5 -168.0 399.5 -179.5 399.5 -193.0 L399.5 -495.5 489.5 -495.5" fill-rule="evenodd" stroke="none"/>
    </g>
    <g id="font_Myriad_Pro_m0">
      <path d="M75.0 0.0 L75.0 -361.5 Q75.0 -400.0 74.0 -432.5 72.5 -465.0 71.0 -495.5 L149.5 -495.5 154.0 -414.5 157.0 -414.5 Q170.5 -438.5 191.5 -459.0 212.0 -479.5 242.5 -492.5 272.5 -505.0 313.5 -505.5 364.0 -504.5 400.5 -478.0 436.5 -451.0 453.0 -406.5 L455.0 -406.5 Q466.5 -428.0 481.5 -443.5 496.0 -459.5 511.5 -471.0 533.5 -487.5 559.0 -496.5 585.0 -505.5 620.0 -505.5 654.5 -506.5 692.0 -488.0 730.0 -469.5 756.5 -423.0 783.0 -376.0 784.0 -291.0 L784.0 0.0 696.0 0.0 696.0 -279.5 Q696.0 -352.0 669.0 -392.0 642.0 -431.5 588.5 -432.0 549.0 -431.0 521.0 -407.5 493.0 -384.5 480.5 -351.0 477.5 -341.0 475.5 -330.0 473.5 -318.5 473.5 -306.0 L473.5 0.0 385.5 0.0 385.5 -297.0 Q385.5 -357.0 359.5 -394.0 333.5 -431.0 282.0 -432.0 254.0 -431.5 231.5 -418.5 209.0 -406.0 193.0 -385.5 177.5 -365.0 170.0 -342.0 166.5 -332.5 164.5 -321.0 163.0 -309.5 163.0 -298.0 L163.0 0.0 75.0 0.0" fill-rule="evenodd" stroke="none"/>
    </g>
    <g id="font_Myriad_Pro_o0">
      <path d="M282.5 -438.0 L282.5 -438.0 Q230.0 -437.0 196.5 -409.0 163.0 -381.0 147.0 -337.5 131.0 -294.0 131.0 -246.5 131.5 -192.0 150.0 -149.0 169.0 -106.5 202.5 -81.5 236.0 -57.0 280.5 -56.5 324.0 -57.0 358.0 -81.5 391.5 -106.0 411.0 -149.5 430.5 -192.5 431.0 -249.0 431.0 -292.0 416.0 -335.0 401.0 -378.5 368.5 -407.5 335.5 -437.0 282.5 -438.0 M284.5 -505.5 L284.5 -505.5 Q356.0 -505.0 409.5 -473.0 463.0 -441.5 493.0 -384.5 522.5 -327.5 523.0 -252.0 522.5 -183.5 501.0 -133.5 480.0 -84.0 444.0 -52.0 408.5 -20.0 365.0 -4.5 321.5 11.0 276.5 11.0 209.0 10.5 155.5 -20.5 102.0 -51.0 71.0 -108.0 39.5 -165.0 39.0 -243.5 40.0 -326.5 72.5 -384.5 105.0 -443.0 160.5 -474.0 215.5 -505.0 284.5 -505.5" fill-rule="evenodd" stroke="none"/>
    </g>
    <g id="font_Myriad_Pro_u0">
      <path d="M489.5 -495.5 L489.5 -136.0 Q489.5 -97.0 490.5 -63.0 491.5 -29.0 493.5 0.0 L414.0 0.0 408.5 -81.5 406.5 -81.5 Q395.5 -60.5 373.5 -39.5 352.0 -18.5 319.5 -4.0 286.5 10.5 242.5 11.0 202.5 11.5 163.5 -7.0 124.5 -25.5 98.5 -73.0 72.5 -120.5 71.5 -206.0 L71.5 -495.5 161.5 -495.5 161.5 -222.5 Q161.0 -151.0 186.5 -108.0 212.0 -65.0 272.5 -64.0 302.5 -64.5 326.5 -76.5 350.0 -88.5 366.5 -107.0 383.0 -126.0 391.5 -147.0 395.0 -156.0 397.5 -168.0 399.5 -179.5 399.5 -193.0 L399.5 -495.5 489.5 -495.5" fill-rule="evenodd" stroke="none"/>
    </g>
    <g id="font_Myriad_Pro_f0">
      <path d="M173.0 0.0 L84.0 0.0 84.0 -427.0 15.5 -427.0 15.5 -495.5 84.0 -495.5 84.0 -519.0 Q84.0 -572.0 97.5 -616.5 111.0 -661.5 141.5 -692.0 167.0 -716.5 198.5 -727.5 230.0 -738.0 262.0 -738.0 286.5 -737.5 306.0 -733.5 325.5 -729.5 339.0 -723.5 L326.5 -654.5 Q316.5 -659.0 303.0 -662.0 289.0 -665.5 269.0 -665.5 231.0 -665.0 210.0 -645.5 189.0 -626.0 181.0 -593.5 172.5 -561.0 173.0 -522.0 L173.0 -495.5 293.0 -495.5 293.0 -427.0 173.0 -427.0 173.0 0.0" fill-rule="evenodd" stroke="none"/>
    </g>
    <g id="font_Myriad_Pro_:0">
      <path d="M113.5 11.0 L113.5 11.0 Q87.0 10.5 70.5 -7.5 54.5 -25.0 54.0 -52.5 54.5 -81.5 71.0 -99.0 88.0 -116.5 114.5 -117.0 142.5 -116.5 158.5 -99.0 174.5 -81.5 175.0 -52.5 174.5 -25.0 158.5 -7.5 142.0 10.5 113.5 11.0 M113.5 -350.0 L113.5 -350.0 Q87.0 -350.5 70.5 -368.5 54.5 -386.0 54.0 -413.5 54.5 -442.5 71.0 -460.0 88.0 -477.5 114.5 -478.0 142.5 -477.5 158.5 -460.0 174.5 -442.5 175.0 -413.5 174.5 -386.0 158.5 -368.5 142.0 -350.5 113.5 -350.0" fill-rule="evenodd" stroke="none"/>
    </g>
  </defs>
</svg>
